<svg xmlns="http://www.w3.org/2000/svg" viewBox="0 0 32 32" width="32" height="32">
  <!-- Ship Game favicon — delta-wing starfighter silhouette -->
  <!-- Fuselage -->
  <path d="M16 3 L14 10 L12 14 L14 18 L14 24 L16 26 L18 24 L18 18 L20 14 L18 10 Z" fill="#c0c8d0"/>
  <!-- Left wing -->
  <path d="M12 14 L4 22 L6 24 L12 20 L14 18 Z" fill="#8090a0"/>
  <!-- Right wing -->
  <path d="M20 14 L28 22 L26 24 L20 20 L18 18 Z" fill="#8090a0"/>
  <!-- Cockpit -->
  <path d="M15 7 L16 5 L17 7 L17 10 L15 10 Z" fill="#1a2a3a"/>
  <!-- Engine glow -->
  <rect x="13" y="24" width="2" height="4" rx="0.5" fill="#00d4ff"/>
  <rect x="17" y="24" width="2" height="4" rx="0.5" fill="#00d4ff"/>
  <rect x="15" y="25" width="2" height="3" rx="0.5" fill="#00d4ff" opacity="0.7"/>
</svg>
